<svg xmlns="http://www.w3.org/2000/svg" viewBox="0 0 400 400" width="400" height="400">
  <!-- Particle Field Overlay — Scattered micro-dots simulating sand grains -->
  <!-- Transparent background, visible opacity for overlay use -->

  <circle cx="202.7" cy="199.3" r="1.1" fill="#d4a04a" opacity="0.32"/>
  <circle cx="377.7" cy="338.4" r="1.4" fill="#b8a878" opacity="0.28"/>
  <circle cx="302.8" cy="235.7" r="1.6" fill="#b8a878" opacity="0.43"/>
  <circle cx="180.5" cy="37.7" r="1.6" fill="#d4a04a" opacity="0.32"/>
  <circle cx="225.0" cy="207.2" r="1.3" fill="#e8c47a" opacity="0.46"/>
  <circle cx="388.6" cy="397.0" r="1.4" fill="#d4a04a" opacity="0.28"/>
  <circle cx="150.3" cy="305.3" r="1.7" fill="#d4a04a" opacity="0.49"/>
  <circle cx="3.0" cy="147.2" r="1.3" fill="#d4a04a" opacity="0.27"/>
  <circle cx="47.4" cy="39.4" r="1.7" fill="#d4a04a" opacity="0.42"/>
  <circle cx="302.8" cy="244.5" r="1.9" fill="#d4a04a" opacity="0.55"/>
  <circle cx="298.4" cy="132.7" r="1.4" fill="#d4a04a" opacity="0.44"/>
  <circle cx="163.6" cy="279.9" r="1.7" fill="#d4a04a" opacity="0.46"/>
  <circle cx="373.5" cy="293.9" r="1.2" fill="#b8a878" opacity="0.47"/>
  <circle cx="3.0" cy="397.0" r="1.2" fill="#b8a878" opacity="0.46"/>
  <circle cx="127.7" cy="397.0" r="1.0" fill="#e8c47a" opacity="0.32"/>
  <circle cx="182.1" cy="306.8" r="1.6" fill="#e8c47a" opacity="0.52"/>
  <circle cx="203.4" cy="138.7" r="1.9" fill="#d4a04a" opacity="0.37"/>
  <circle cx="129.0" cy="244.1" r="1.5" fill="#e8c47a" opacity="0.47"/>
  <circle cx="217.6" cy="93.1" r="1.2" fill="#b8a878" opacity="0.37"/>
  <circle cx="363.2" cy="217.8" r="1.9" fill="#e8c47a" opacity="0.48"/>
  <circle cx="260.6" cy="278.1" r="1.1" fill="#b8a878" opacity="0.38"/>
  <circle cx="3.0" cy="397.0" r="1.6" fill="#b8a878" opacity="0.33"/>
  <circle cx="389.5" cy="155.9" r="1.5" fill="#e8c47a" opacity="0.45"/>
  <circle cx="201.9" cy="390.8" r="1.2" fill="#e8c47a" opacity="0.34"/>
  <circle cx="397.0" cy="223.9" r="1.5" fill="#b8a878" opacity="0.33"/>
  <circle cx="334.8" cy="397.0" r="1.6" fill="#b8a878" opacity="0.34"/>
  <circle cx="166.5" cy="176.3" r="1.8" fill="#e8c47a" opacity="0.41"/>
  <circle cx="216.0" cy="219.2" r="1.1" fill="#d4a04a" opacity="0.4"/>
  <circle cx="3.0" cy="397.0" r="1.2" fill="#d4a04a" opacity="0.32"/>
  <circle cx="175.7" cy="200.0" r="1.1" fill="#b8a878" opacity="0.4"/>
  <circle cx="233.6" cy="16.0" r="1.9" fill="#e8c47a" opacity="0.45"/>
  <circle cx="294.7" cy="346.6" r="1.2" fill="#b8a878" opacity="0.38"/>
  <circle cx="31.7" cy="172.5" r="1.4" fill="#e8c47a" opacity="0.46"/>
  <circle cx="165.2" cy="117.7" r="1.2" fill="#b8a878" opacity="0.39"/>
  <circle cx="242.8" cy="229.7" r="1.2" fill="#b8a878" opacity="0.32"/>
  <circle cx="372.9" cy="293.1" r="1.0" fill="#e8c47a" opacity="0.27"/>
  <circle cx="150.2" cy="346.2" r="1.2" fill="#d4a04a" opacity="0.45"/>
  <circle cx="397.0" cy="397.0" r="1.2" fill="#b8a878" opacity="0.42"/>
  <circle cx="99.1" cy="240.7" r="1.4" fill="#e8c47a" opacity="0.28"/>
  <circle cx="100.6" cy="282.2" r="1.7" fill="#b8a878" opacity="0.27"/>
  <circle cx="194.2" cy="186.3" r="1.9" fill="#b8a878" opacity="0.35"/>
  <circle cx="220.7" cy="297.9" r="1.2" fill="#d4a04a" opacity="0.29"/>
  <circle cx="3.0" cy="276.9" r="1.9" fill="#e8c47a" opacity="0.38"/>
  <circle cx="183.3" cy="208.0" r="2.0" fill="#b8a878" opacity="0.5"/>
  <circle cx="397.0" cy="115.9" r="1.5" fill="#e8c47a" opacity="0.37"/>
  <circle cx="390.8" cy="25.4" r="2.0" fill="#e8c47a" opacity="0.36"/>
  <circle cx="200.0" cy="397.0" r="1.7" fill="#d4a04a" opacity="0.34"/>
  <circle cx="194.4" cy="11.7" r="1.2" fill="#b8a878" opacity="0.47"/>
  <circle cx="128.6" cy="397.0" r="1.1" fill="#b8a878" opacity="0.47"/>
  <circle cx="205.0" cy="255.5" r="1.9" fill="#d4a04a" opacity="0.4"/>
  <circle cx="387.8" cy="397.0" r="1.1" fill="#e8c47a" opacity="0.51"/>
  <circle cx="397.0" cy="318.9" r="1.9" fill="#d4a04a" opacity="0.29"/>
  <circle cx="223.8" cy="381.2" r="1.7" fill="#b8a878" opacity="0.27"/>
  <circle cx="124.0" cy="178.3" r="1.7" fill="#d4a04a" opacity="0.31"/>
  <circle cx="228.6" cy="340.2" r="1.5" fill="#b8a878" opacity="0.44"/>
</svg>