<svg xmlns="http://www.w3.org/2000/svg" viewBox="0 0 1920 400" width="1920" height="400">
  <rect width="1920" height="400" fill="#0d0d0a"/>
  <path d="M 0,180 C 300,160 580,150 860,165 C 1140,180 1440,145 1920,160"
        fill="none" stroke="#d4a04a" stroke-width="0.8" opacity="0.15"/>
  <path d="M 0,240 C 320,190 640,175 960,210 C 1280,245 1600,185 1920,215"
        fill="none" stroke="#d4a04a" stroke-width="1" opacity="0.25"/>
  <path d="M 0,290 C 400,250 700,235 1000,260 C 1300,285 1550,240 1920,260"
        fill="none" stroke="#d4a04a" stroke-width="0.8" opacity="0.2"/>
  <path d="M 0,340 C 250,315 550,298 850,320 C 1150,342 1450,305 1920,325"
        fill="none" stroke="#d4a04a" stroke-width="1.2" opacity="0.3"/>
</svg>
